<?xml version="1.0" encoding="UTF-8"?>
<svg id="_レイヤー_2" data-name="レイヤー 2" xmlns="http://www.w3.org/2000/svg" viewBox="0 0 258.45 256.23">
  <defs>
    <style>
      .cls-1 {
        fill: #453833;
      }

      .cls-1, .cls-2, .cls-3, .cls-4 {
        stroke-width: 0px;
      }

      .cls-2 {
        fill: #92bfb2;
        fill-rule: evenodd;
      }

      .cls-3 {
        fill: #3b3b3b;
      }

      .cls-4 {
        fill: #a9292e;
      }
    </style>
  </defs>
  <g id="_レイヤー_1-2" data-name="レイヤー 1">
    <g>
      <g>
        <path class="cls-2" d="M4.07,221.55c-.62-.07-1.25-.13-1.87-.2,1.18,1.11,2.43,2.15,3.71,3.14.04.78.52,1.49,1.02,2.11,3.58,4.45,7.84,8.19,12.56,11.29,9.5,10.34,30.07,13.86,42.31,15.19,22.07,2.41,44.18.07,65.99-3.44,22.16-3.57,45.66-6.65,65.97-16.72,43.01-21.34,54.91-68.46,62.33-112.07.78-4.56-.41-8.29-2.68-11.03-2.67-2.38-7.67-5.17-11.28-5.33-.24-.51-.5-1.03-.79-1.55-18.8-32.58-63.85-39.57-96.37-25.47-41.44,17.96-63.33,58.33-88.61,93.13-3.56,4.9-7.25,9.71-11.13,14.38-5.44,4.25-10.72,9-14.15,14.85-4.04,3.46-8.36,6.87-11.57,10.97l-6.77,5.66-8.66,5.08c2.4-1.15,5.6-3.37,8-4.53l-.52.43c.6-.35,1.2-.71,1.8-1.06M147.56,217.1c5-.94,10-1.88,15-2.81.19.74.43,1.43.72,2.09-9.87,2.84-20.15,4.89-30.47,6.52,4.96-1.81,9.88-3.73,14.75-5.79Z"/>
        <g>
          <path class="cls-3" d="M4.07,219.32c-.62-.07-1.25-.13-1.87-.2-1.92-.2-2.94,2.57-1.57,3.8,4.62,4.17,7.97,9.4,12.94,13.38,4.33,3.46,8.52,7.3,13.44,9.92,9.36,4.98,20.07,7.17,30.49,8.57,29.36,3.92,58.74-.82,87.68-5.69,25.57-4.3,51.46-10.88,71.02-28.91,16.09-14.84,25.93-34.98,32.32-55.63,3.75-12.12,6.41-24.55,8.65-37.03,1.02-5.66,2.48-11.51-.5-16.85-2.73-4.89-9.18-7.82-14.54-8.4.64.37,1.28.74,1.92,1.1-8.5-17.52-27.27-28.83-45.73-32.93-19.31-4.29-39.75-1.89-57.61,6.54-43.91,20.72-65.1,66.41-93.93,102.59-4.49,5.63-10.6,9.55-15.01,15.31-3.99,5.22-9.2,9.83-13.93,14.44-4.86,4.74-8.94,6.82-14.9,10.32-2.49,1.46-.29,5.15,2.25,3.85,2.73-1.4,5.28-3.12,8-4.53-.9-1.17-1.8-2.33-2.7-3.5-.17.14-.35.29-.52.43-1.97,1.64.56,4.76,2.7,3.5.6-.35,1.2-.71,1.8-1.06,2.47-1.45.23-5.3-2.25-3.85l-1.8,1.06c.9,1.17,1.8,2.33,2.7,3.5.17-.14.35-.29.52-.43,2.02-1.69-.55-4.61-2.7-3.5-2.72,1.41-5.27,3.13-8,4.53.75,1.28,1.5,2.56,2.25,3.85,4.27-2.5,8.37-4.81,12.16-7.98,2.78-2.32,5.01-4.83,7.6-7.35,2.1-2.04,4.42-3.82,6.59-5.79,2.5-2.28,4.07-5.41,6.41-7.91,2.03-2.17,4.25-4.15,6.54-6.03,2.53-2.09,4.45-4.42,6.48-7,3.86-4.91,7.55-9.95,11.17-15.05,6.43-9.07,12.63-18.3,19.08-27.36,24.55-34.45,57.4-68.86,103.3-66.05,19.82,1.21,39.83,9.69,51.69,26.13,1.85,2.56,3.06,6.42,5.93,7.63,2.85,1.2,5.71,1.58,8.3,3.57,3.64,2.78,3.98,6.95,3.3,11.18-1.64,10.23-3.74,20.45-6.3,30.49-5.12,20.06-12.65,40.18-26.04,56.27-15.2,18.27-36.21,27.79-59,33.01-14.42,3.3-29.18,5.48-43.83,7.58-16.47,2.36-33.17,3.74-49.8,2.65-11.8-.78-24.06-2.5-35.07-7.01-5.62-2.3-9.55-5.9-14.36-9.35-6.2-4.45-10.06-10.36-15.57-15.33-.52,1.27-1.05,2.53-1.57,3.8.62.07,1.25.13,1.87.2,2.85.3,2.83-4.15,0-4.45h0Z"/>
          <path class="cls-3" d="M148.15,219.25c5-.94,10-1.88,15-2.81-.91-.52-1.83-1.04-2.74-1.56.2.72.43,1.4.72,2.09.52-.91,1.04-1.83,1.56-2.74-10,2.86-20.2,4.89-30.47,6.52.39,1.43.79,2.86,1.18,4.3,4.96-1.82,9.88-3.74,14.75-5.79,1.12-.47,1.89-1.47,1.56-2.74-.28-1.05-1.63-2.02-2.74-1.56-4.87,2.05-9.79,3.98-14.75,5.79-2.72,1-1.63,4.74,1.18,4.3,10.27-1.62,20.47-3.65,30.47-6.52,1.05-.3,2.02-1.61,1.56-2.74-.28-.69-.52-1.37-.72-2.09-.34-1.23-1.55-1.78-2.74-1.56-5,.94-10,1.87-15,2.81-2.81.53-1.62,4.82,1.18,4.3Z"/>
        </g>
      </g>
      <g>
        <g>
          <path class="cls-4" d="M201.56,38.3c-2.15-4.14-6.9-6.21-14.27-6.21-8.82,0-16.55,1.71-23.18,5.12-6.64,3.41-13.23,8.84-19.79,16.28-6.56,7.44-9.28,13.73-11.26,17.88-3.68,7.72-6.12,13.22-3.82,15.67,2.3,2.46,12.29-.88,17.67-2.38,5.76-1.61,15.05-3.05,27.21-9.15,12.16-6.1,18.03-11.52,22.66-17.14,4.78-5.8,4.78-20.08,4.78-20.08Z"/>
          <path class="cls-1" d="M132.31,89.1c-1.75,0-3.09-.37-3.93-1.26-2.77-2.95-.48-8.39,3.62-16.98l.45-.95c1.91-4.06,4.8-10.19,10.99-17.21,6.63-7.52,13.4-13.08,20.13-16.55,6.77-3.48,14.75-5.25,23.72-5.25,7.8,0,12.95,2.3,15.31,6.85l.13.26v.29c0,.6-.06,14.76-5.05,20.82-4.29,5.21-10.06,10.93-23.04,17.45-9.79,4.91-17.7,6.83-23.48,8.23-1.46.35-2.77.67-3.94,1l-2.14.61c-5.17,1.5-9.63,2.69-12.78,2.69ZM187.3,33.26c-8.59,0-16.21,1.68-22.64,4.99-6.47,3.33-13.01,8.71-19.44,16.01-5.96,6.77-8.66,12.48-10.63,16.65l-.45.96c-2.9,6.08-5.89,12.37-4.02,14.36,1.54,1.63,10.17-.88,14.33-2.09l2.16-.62c1.19-.33,2.54-.66,4.02-1.02,5.67-1.38,13.43-3.26,22.97-8.05,12.59-6.32,18.15-11.83,22.28-16.84,4.09-4.97,4.47-17.01,4.51-19.04-1.99-3.53-6.39-5.33-13.08-5.33Z"/>
        </g>
        <g>
          <path class="cls-4" d="M82.52,21.25c.44,7.26,2,15.11,8.25,27.19,6.25,12.08,12.92,18.7,16.64,23.39,3.47,4.37,9.59,12.94,12.9,12.31,3.3-.63,4.56-6.52,6.12-14.93.84-4.52,2.33-11.21,1.4-21.08-.93-9.87-3.08-18.14-6.44-24.8-3.36-6.66-8.61-12.58-15.75-17.77-5.96-4.33-11.02-5.45-15.19-3.36,0,0-8.39,11.55-7.93,19.05Z"/>
          <path class="cls-1" d="M119.93,85.34c-3.24,0-7.25-4.81-12.08-11.04l-1.37-1.75c-.75-.95-1.63-1.98-2.6-3.12-3.85-4.53-9.13-10.73-14.16-20.46-6.67-12.9-7.97-20.92-8.38-27.66h0c-.48-7.84,7.8-19.33,8.15-19.82l.17-.23.26-.13c4.58-2.29,10.1-1.13,16.41,3.46,7.26,5.27,12.67,11.39,16.1,18.19,3.41,6.76,5.62,15.25,6.56,25.22.88,9.3-.38,15.96-1.22,20.37l-.2,1.04c-1.74,9.36-3.08,15.11-7.06,15.87-.19.04-.39.06-.59.06ZM83.69,21.18c.39,6.48,1.65,14.2,8.12,26.71,4.91,9.48,10.08,15.57,13.86,20.01.99,1.17,1.88,2.22,2.65,3.19l1.38,1.77c2.65,3.42,8.06,10.54,10.37,10.11,2.68-.51,3.96-7.36,5.19-13.98l.2-1.05c.86-4.53,2.03-10.73,1.19-19.71-.91-9.68-3.04-17.88-6.32-24.38-3.26-6.46-8.44-12.3-15.39-17.35-5.42-3.93-10.03-5.07-13.72-3.38-1.16,1.66-7.93,11.62-7.54,18.05h0Z"/>
        </g>
        <g>
          <path class="cls-4" d="M44.75,106.64c7.05,1.82,14.99,2.76,28.41.55,13.42-2.21,21.78-6.51,27.39-8.59,5.23-1.95,15.27-5.12,15.69-8.46.42-3.34-4.79-6.35-12.3-10.43-4.04-2.2-9.94-5.68-19.62-7.85-9.68-2.16-18.2-2.68-25.58-1.54-7.37,1.14-14.63,4.3-21.76,9.48-5.96,4.33-8.59,8.8-7.89,13.41,0,0,8.39,11.55,15.67,13.43Z"/>
          <path class="cls-1" d="M58.97,109.66c-6.09,0-10.57-.86-14.52-1.88h0c-7.6-1.97-15.97-13.4-16.33-13.88l-.17-.23-.04-.28c-.77-5.06,2.05-9.95,8.36-14.54,7.25-5.27,14.75-8.53,22.28-9.7,7.48-1.16,16.24-.63,26.02,1.55,9.12,2.04,15.06,5.3,18.99,7.45l.93.51c8.37,4.55,13.41,7.6,12.91,11.62-.42,3.38-6.49,5.82-14.37,8.66l-2.08.76c-1.14.42-2.39.94-3.78,1.51-5.5,2.26-13.03,5.36-23.83,7.14-5.68.94-10.37,1.31-14.38,1.31ZM45.04,105.5c6.29,1.63,14.02,2.82,27.92.53,10.53-1.74,17.92-4.78,23.31-7,1.42-.58,2.69-1.11,3.85-1.54l2.11-.76c4.07-1.47,12.55-4.52,12.83-6.74.34-2.71-5.78-6.04-11.7-9.25l-.93-.51c-4.04-2.22-9.58-5.26-18.38-7.22-9.49-2.12-17.95-2.63-25.14-1.52-7.15,1.1-14.3,4.22-21.25,9.27-5.42,3.94-7.92,7.97-7.45,12,1.22,1.62,8.6,11.13,14.83,12.75h0Z"/>
        </g>
        <g>
          <path class="cls-4" d="M114.29,168.95c3.91-6.14,7.26-13.4,9.3-26.85,2.04-13.45.54-22.73.29-28.7-.23-5.57-.15-16.11-3.2-17.54-3.04-1.43-7.52,2.59-13.73,8.48-3.34,3.17-8.48,7.7-13.53,16.23-5.05,8.54-8.17,16.48-9.37,23.85-1.2,7.36-.43,15.24,2.29,23.63,2.28,7,5.71,10.88,10.32,11.65,0,0,13.57-4.41,17.62-10.75Z"/>
          <path class="cls-1" d="M96.77,180.91l-.28-.05c-5.05-.84-8.83-5.03-11.24-12.45-2.77-8.53-3.56-16.66-2.34-24.18,1.21-7.48,4.42-15.64,9.52-24.26,4.76-8.04,9.69-12.69,12.96-15.76l.77-.73c6.91-6.55,11.36-10.42,15.04-8.68,3.08,1.44,3.53,7.96,3.8,16.33l.08,2.22c.05,1.22.15,2.57.27,4.07.45,5.93,1.07,14.04-.57,24.86-2.18,14.36-5.84,21.61-9.47,27.3-4.22,6.62-17.68,11.05-18.25,11.24l-.27.09ZM119.34,96.76c-2.67,0-7.19,4.28-11.57,8.44l-.78.73c-3.36,3.16-7.95,7.49-12.54,15.25-4.95,8.37-8.06,16.25-9.22,23.44-1.16,7.14-.4,14.91,2.25,23.08,2.07,6.37,5.13,10,9.11,10.8,1.92-.66,13.25-4.74,16.71-10.17h0c3.49-5.48,7.02-12.46,9.13-26.39,1.6-10.55.99-18.52.55-24.33-.12-1.53-.22-2.91-.27-4.15l-.08-2.25c-.14-4.33-.42-13.32-2.44-14.27-.26-.12-.54-.18-.84-.18Z"/>
        </g>
        <g>
          <path class="cls-4" d="M195.04,122.07c-4.63-5.62-10.5-11.04-22.66-17.14-12.16-6.1-21.45-7.54-27.21-9.15-5.37-1.5-15.37-4.83-17.67-2.38-2.3,2.45.14,7.95,3.82,15.67,1.98,4.15,4.7,10.44,11.26,17.88,6.56,7.44,13.15,12.87,19.79,16.28,6.63,3.41,14.36,5.12,23.18,5.12,7.36,0,12.12-2.07,14.27-6.21,0,0,0-14.27-4.78-20.08Z"/>
          <path class="cls-1" d="M185.56,149.53c-8.97,0-16.95-1.77-23.72-5.25-6.73-3.47-13.51-9.03-20.13-16.55-6.18-7.02-9.08-13.15-10.99-17.21l-.45-.95c-4.1-8.6-6.39-14.03-3.61-16.98,2.33-2.48,8.67-.9,16.71,1.44l2.14.61c1.17.32,2.48.64,3.94,1,5.78,1.4,13.69,3.32,23.48,8.23,12.98,6.51,18.75,12.23,23.04,17.45,4.99,6.06,5.05,20.22,5.05,20.82v.29l-.13.26c-2.36,4.54-7.51,6.85-15.31,6.85ZM130.44,93.67c-.98,0-1.71.15-2.07.53-1.87,1.99,1.13,8.28,4.02,14.36l.45.95c1.97,4.17,4.66,9.89,10.63,16.65,6.43,7.29,12.97,12.68,19.44,16.01,6.44,3.31,14.05,4.99,22.64,4.99,6.7,0,11.1-1.79,13.08-5.33-.03-2.03-.41-14.07-4.51-19.03h0c-4.13-5.01-9.68-10.52-22.28-16.84-9.55-4.79-17.31-6.67-22.98-8.05-1.48-.36-2.82-.69-4.01-1.02l-2.16-.62c-3.19-.92-9.03-2.62-12.26-2.62Z"/>
        </g>
        <circle class="cls-1" cx="122.3" cy="89.87" r="4.08"/>
      </g>
    </g>
  </g>
</svg>