<?xml version="1.0" encoding="UTF-8"?>
<svg id="_レイヤー_2" data-name="レイヤー 2" xmlns="http://www.w3.org/2000/svg" viewBox="0 0 406.41 110.24">
  <defs>
    <style>
      .cls-1 {
        fill: #453833;
      }

      .cls-1, .cls-2, .cls-3, .cls-4, .cls-5 {
        stroke-width: 0px;
      }

      .cls-2 {
        fill: #92bfb2;
        fill-rule: evenodd;
      }

      .cls-3 {
        fill: #443833;
      }

      .cls-4 {
        fill: #3b3b3b;
      }

      .cls-5 {
        fill: #a9292e;
      }
    </style>
  </defs>
  <g id="_レイヤー_1-2" data-name="レイヤー 1">
    <g>
      <path class="cls-1" d="M68.92,79.9c-6.52,0-9.82-3.32-9.82-9.88,0-2.16.6-6.91,1.85-14.52,1.58-9.64,2.39-21.6,2.39-35.55,0-2.21.88-4.59,2.61-7.07,1.77-2.54,3.7-3.82,5.75-3.82,2.5,0,4.46.71,5.82,2.11,1.38,1.42,2.04,4.93,2.04,10.74,0,3.7-.88,10.44-2.61,20.09,8.46-19.94,17.97-30.03,28.3-30.03,9.74,0,15.53,8.44,17.18,25.08,2.17,22.25,4.32,24.65,5.15,24.65.88,0,1.91-.22,3.08-.64,1.54-.57,2.74-.84,3.67-.84,1.57,0,3.44.74,3.44,4.28,0,2.43-1.41,5.01-4.2,7.68-2.78,2.67-6.32,4.02-10.53,4.02-4.94,0-8.52-2.39-10.64-7.11l-.32-.71h.06c-1.82-4.24-3.17-11.68-4.01-22.13-1.09-13.9-3.6-16.82-5.51-16.82s-5.99,3.08-14.85,17.74c-7.18,11.9-11.67,20.79-13.32,26.44-.38,1.75-1.11,3.26-2.16,4.44-1.1,1.23-2.22,1.85-3.35,1.85ZM71.68,10.06c-1.7,0-3.36,1.14-4.93,3.4-1.61,2.31-2.43,4.5-2.43,6.5,0,14-.81,26.02-2.4,35.71-1.22,7.45-1.83,12.28-1.83,14.36,0,5.98,2.89,8.88,8.82,8.88.83,0,1.7-.51,2.6-1.52.94-1.05,1.59-2.41,1.94-4.02,1.69-5.76,6.21-14.74,13.44-26.71,7.4-12.26,12.54-18.23,15.7-18.23,3.45,0,5.58,5.8,6.51,17.74.89,10.95,2.32,18.52,4.25,22.49l.35.72h-.07c1.99,3.91,5.07,5.82,9.39,5.82,3.94,0,7.25-1.26,9.84-3.74,2.58-2.48,3.89-4.82,3.89-6.96,0-2.94-1.4-3.28-2.44-3.28-.8,0-1.91.26-3.33.78-1.27.47-2.43.71-3.42.71-1.7,0-3.93-2.9-6.14-25.55-1.6-16.04-7.04-24.18-16.19-24.18-10.64,0-20.47,11.43-29.23,33.96l-.96-.27c2.31-12.19,3.49-20.52,3.49-24.74,0-6.8-.96-9.22-1.76-10.04-1.17-1.2-2.88-1.81-5.1-1.81Z"/>
      <g>
        <path class="cls-1" d="M168.44,79.17c-1.36,0-2.49-.46-3.35-1.38-1.49-1.57-2.2-4.41-2.15-8.65-4.89,6.07-9.71,9.15-14.33,9.15-1.9,0-3.55-.75-4.91-2.24-1.35-1.48-2.04-3.37-2.04-5.64,0-5.47,2.04-13.58,6.59-19.35,4.27-5.42,9.28-7.59,14.87-6.45,2.42.49,4.11,1.28,4.95,3.6,2.89.12,3.51,1.72,3.51,3.07,0,.86-.21,2.35-.65,4.55-.77,3.97-1.16,7.18-1.16,9.54s.16,4.15.49,5.11c.33.99.58,1.64.72,1.93.04.07.23.34,1.16.76,1.21.58,1.47,1.41,1.47,2.01,0,1.17-.58,2.15-1.73,2.91-1.08.72-2.24,1.08-3.42,1.08ZM164.07,66.03l-.08,1.62c-.24,4.75.37,7.93,1.82,9.45.68.72,1.54,1.07,2.63,1.07.99,0,1.96-.31,2.87-.91.86-.57,1.28-1.25,1.28-2.07,0-.29-.09-.72-.89-1.1-.9-.41-1.42-.8-1.64-1.22-.17-.33-.42-1.01-.77-2.06-.36-1.08-.54-2.85-.54-5.43,0-2.42.4-5.7,1.18-9.73.42-2.11.64-3.57.64-4.36,0-.89-.3-2.08-2.87-2.08h-.37l-.11-.35c-.66-2.14-2.02-2.79-4.31-3.26-5.2-1.06-9.87.99-13.89,6.09-4.4,5.59-6.37,13.43-6.37,18.73,0,2.01.6,3.68,1.77,4.97,1.18,1.29,2.54,1.92,4.17,1.92,4.6,0,9.47-3.35,14.48-9.97l.98-1.29ZM150.59,70.36c-.29,0-.59-.04-.86-.13-.69-.22-1.17-.69-1.37-1.33-.66-2.18.07-5.23,2.31-9.59,1.88-3.66,4.97-7.92,7.32-8.64h0c.68-.21,1.37-.15,2.05.15.71.32,1.19.89,1.44,1.7.73,2.42-.68,7.24-3.22,10.98-2.69,3.97-4.42,5.99-6.93,6.75-.23.07-.48.1-.74.1ZM158.29,51.62c-1.72.52-4.61,4.02-6.72,8.14-2.08,4.07-2.82,6.96-2.25,8.85.1.33.34.55.71.67.37.12.77.09,1.01.02,2.23-.68,3.84-2.59,6.4-6.36,2.63-3.88,3.66-8.28,3.09-10.13-.16-.53-.45-.88-.89-1.08-.46-.21-.91-.24-1.35-.11h0Z"/>
        <path class="cls-1" d="M179.07,99.85c-.99,0-1.94-.37-2.82-1.1-.91-.75-1.37-1.61-1.37-2.57,0-1.61.25-3.5.75-5.59,2.89-11.54,4.49-23.67,4.76-36.08v-.58c0-2.67.07-4.41.23-5.31.16-.97.64-1.84,1.41-2.58.79-.75,1.89-1.13,3.29-1.13,1.68,0,3.69.94,3.69,5.39,0,1.31-.23,3.52-.7,6.57,1.98-2.89,4.26-5.38,6.8-7.41,3.14-2.51,6.02-3.79,8.54-3.79,2.32,0,4.31.84,5.94,2.49,1.62,1.65,2.44,3.75,2.44,6.24,0,6.41-2.52,12.32-7.48,17.56-4.97,5.25-9.97,7.91-14.88,7.91-1.89,0-3.29-.59-4.16-1.77-.23,1.25-.47,2.86-.7,4.82l-1.41,11.51c-.25,2-.74,3.37-1.49,4.18-.77.83-1.72,1.24-2.84,1.24ZM185.31,45.92c-1.13,0-2,.29-2.6.86-.62.59-.98,1.25-1.11,2.02-.14.84-.21,2.57-.21,5.15v.59c-.27,12.49-1.88,24.7-4.79,36.3-.48,2.02-.72,3.82-.72,5.36,0,.65.33,1.24,1,1.8.71.58,1.42.87,2.19.87.84,0,1.53-.3,2.11-.92.6-.64,1.01-1.86,1.23-3.62l1.41-11.51c.33-2.78.67-4.89,1.01-6.27l.4-1.63.56,1.58c.57,1.61,1.84,2.39,3.89,2.39,4.62,0,9.38-2.55,14.15-7.59,4.78-5.05,7.2-10.72,7.2-16.87,0-2.25-.71-4.06-2.16-5.54-1.45-1.48-3.16-2.19-5.22-2.19-2.29,0-4.96,1.2-7.92,3.57-3,2.4-5.64,5.47-7.82,9.11l-1.28,2.13.65-4.48c.48-3.15.73-5.4.73-6.7,0-4.39-2.03-4.39-2.69-4.39ZM190.91,73.9c-1.01,0-1.91-.31-2.67-.92-.8-.63-1.2-1.38-1.2-2.22,0-2.8,1.9-6.49,5.81-11.27,3.94-4.82,7.09-7.16,9.66-7.16.6,0,1.14.34,1.61,1.02.43.63.65,1.58.65,2.91,0,3.73-1.66,7.64-4.93,11.61-3.34,4.06-6.26,6.03-8.93,6.03ZM202.51,53.33c-2.21,0-5.2,2.28-8.89,6.79-3.71,4.54-5.58,8.12-5.58,10.64,0,.53.27,1,.82,1.44.59.47,1.26.7,2.05.7,2.31,0,5.06-1.91,8.15-5.66,3.12-3.79,4.71-7.48,4.71-10.98,0-1.1-.16-1.89-.47-2.34-.27-.39-.54-.59-.79-.59Z"/>
        <path class="cls-1" d="M217.74,99.85c-.99,0-1.94-.37-2.82-1.1-.91-.75-1.37-1.61-1.37-2.57,0-1.61.25-3.5.75-5.59,2.89-11.54,4.49-23.67,4.76-36.08v-.58c0-2.67.07-4.41.23-5.31.16-.97.64-1.84,1.41-2.58.79-.75,1.89-1.13,3.29-1.13,1.68,0,3.69.94,3.69,5.39,0,1.31-.23,3.52-.7,6.57,1.98-2.89,4.26-5.38,6.8-7.41,3.14-2.51,6.02-3.79,8.54-3.79,2.32,0,4.31.84,5.94,2.49,1.62,1.65,2.44,3.75,2.44,6.24,0,6.41-2.52,12.32-7.48,17.56-4.97,5.25-9.97,7.91-14.88,7.91-1.89,0-3.29-.59-4.16-1.77-.23,1.25-.47,2.86-.7,4.82l-1.41,11.51c-.25,2-.74,3.37-1.49,4.18-.77.83-1.72,1.24-2.84,1.24ZM223.98,45.92c-1.13,0-2,.29-2.6.86-.62.59-.98,1.25-1.11,2.02-.14.84-.21,2.57-.21,5.15v.59c-.27,12.49-1.88,24.7-4.79,36.3-.48,2.02-.72,3.82-.72,5.36,0,.65.33,1.24,1,1.8.71.58,1.42.87,2.19.87.84,0,1.53-.3,2.11-.92.6-.64,1.01-1.86,1.23-3.62l1.41-11.51c.33-2.78.67-4.89,1.01-6.27l.4-1.63.56,1.58c.57,1.61,1.84,2.39,3.89,2.39,4.62,0,9.38-2.55,14.15-7.59,4.78-5.05,7.2-10.72,7.2-16.87,0-2.25-.71-4.06-2.16-5.54-1.45-1.48-3.16-2.19-5.22-2.19-2.29,0-4.96,1.2-7.92,3.57-3,2.4-5.64,5.47-7.82,9.11l-1.28,2.13.65-4.48c.48-3.15.73-5.4.73-6.7,0-4.39-2.03-4.39-2.69-4.39ZM229.58,73.9c-1.01,0-1.91-.31-2.67-.92-.8-.63-1.2-1.38-1.2-2.22,0-2.8,1.9-6.49,5.81-11.27,3.94-4.82,7.09-7.16,9.66-7.16.6,0,1.14.34,1.61,1.02.43.63.65,1.58.65,2.91,0,3.73-1.66,7.64-4.93,11.61-3.34,4.06-6.26,6.03-8.93,6.03ZM241.18,53.33c-2.21,0-5.2,2.28-8.89,6.79-3.71,4.54-5.58,8.12-5.58,10.64,0,.53.27,1,.82,1.44.59.47,1.26.7,2.05.7,2.31,0,5.06-1.91,8.15-5.66,3.12-3.79,4.71-7.48,4.71-10.98,0-1.1-.16-1.89-.47-2.34-.27-.39-.54-.59-.79-.59Z"/>
        <path class="cls-1" d="M279.95,79.17c-1.36,0-2.49-.46-3.35-1.38-1.49-1.57-2.2-4.41-2.15-8.65-4.89,6.07-9.71,9.15-14.33,9.15-1.9,0-3.55-.75-4.91-2.24-1.35-1.48-2.04-3.37-2.04-5.64,0-5.47,2.04-13.58,6.59-19.35,4.27-5.42,9.28-7.59,14.87-6.45,2.42.49,4.11,1.28,4.95,3.6,2.89.12,3.51,1.72,3.51,3.07,0,.86-.21,2.35-.65,4.55-.77,3.97-1.16,7.18-1.16,9.54s.16,4.15.49,5.11c.33.99.58,1.64.72,1.93.04.07.23.34,1.16.76,1.21.58,1.47,1.41,1.47,2.01,0,1.17-.58,2.15-1.73,2.91-1.08.72-2.24,1.08-3.42,1.08ZM275.58,66.03l-.08,1.62c-.24,4.75.37,7.93,1.82,9.45.68.72,1.54,1.07,2.63,1.07.99,0,1.96-.31,2.87-.91.86-.57,1.28-1.25,1.28-2.07,0-.29-.09-.72-.89-1.1-.9-.41-1.42-.8-1.64-1.22-.17-.33-.42-1.01-.77-2.06-.36-1.08-.54-2.85-.54-5.43,0-2.42.4-5.7,1.18-9.73.42-2.11.64-3.57.64-4.36,0-.89-.3-2.08-2.87-2.08h-.37l-.11-.35c-.66-2.14-2.02-2.79-4.31-3.26-5.2-1.06-9.87.99-13.89,6.09-4.4,5.59-6.37,13.43-6.37,18.73,0,2.01.6,3.68,1.77,4.97,1.18,1.29,2.54,1.92,4.17,1.92,4.6,0,9.47-3.35,14.48-9.97l.98-1.29ZM262.1,70.36c-.9,0-1.91-.42-2.23-1.46-.66-2.18.07-5.23,2.31-9.59,1.88-3.66,4.97-7.92,7.32-8.64h0c.68-.21,1.37-.16,2.05.15.71.32,1.19.89,1.44,1.7.73,2.42-.68,7.24-3.22,10.98-2.69,3.97-4.42,5.99-6.93,6.75-.22.07-.48.1-.74.1ZM269.8,51.62c-1.72.52-4.62,4.02-6.72,8.14-2.08,4.07-2.82,6.96-2.25,8.85.24.78,1.25.84,1.72.69,2.23-.68,3.84-2.59,6.4-6.36,2.63-3.88,3.66-8.28,3.09-10.13-.16-.53-.45-.88-.89-1.08-.46-.21-.9-.24-1.35-.11h0Z"/>
      </g>
      <g>
        <g>
          <path class="cls-3" d="M150.63,30.3c-.23.47-.39,1.78-.5,3.93-.04,1.26-.22,2.31-.52,3.15-.3.84-.7,1.27-1.19,1.27-.55,0-1.02-.17-1.39-.52-.37-.35-.56-.85-.56-1.51,0-.58.13-1.38.38-2.4.57-2.3,1.2-7.12,1.9-14.46.04-.3.22-.59.53-.86.31-.28.64-.42.98-.42,1.16,0,1.74.72,1.74,2.16,0,.65-.13,1.68-.39,3.1-.31,1.63-.46,2.81-.46,3.56.07.09.39.13.95.13,1.23,0,2.97-.1,5.23-.29s3.47-.44,3.65-.75c.17-.31.35-1.2.54-2.67.19-1.47.28-3.04.28-4.7,0-.25.18-.54.55-.89s.76-.52,1.19-.52c.48,0,.89.15,1.21.46.32.31.48.69.48,1.15,0,.66-.16,1.85-.49,3.59-.37,1.94-.68,4.43-.93,7.48-.25,3.04-.38,5.06-.38,6.06,0,.47-.23.95-.69,1.41-.46.47-.87.7-1.23.7-.39,0-.76-.14-1.12-.44-.36-.29-.54-.66-.54-1.12,0-.3.12-1.32.36-3.07.24-1.74.36-2.94.36-3.59,0-.42-.08-.63-.25-.63-.41,0-1.23.05-2.45.14-1.23.11-2.07.16-2.52.16-.33,0-1.18.05-2.55.14-1.38.1-2.1.18-2.17.25Z"/>
          <path class="cls-1" d="M148.41,39.15c-.68,0-1.26-.22-1.73-.65-.48-.44-.72-1.07-.72-1.88,0-.62.13-1.45.4-2.52.56-2.27,1.2-7.11,1.89-14.39.06-.44.3-.84.7-1.19.4-.36.84-.54,1.31-.54.84,0,2.24.35,2.24,2.66,0,.69-.13,1.73-.4,3.19-.25,1.33-.4,2.37-.44,3.09.1,0,.24.01.44.01,1.21,0,2.96-.1,5.19-.29,2.77-.24,3.23-.51,3.3-.56.02-.05.19-.52.43-2.43.19-1.45.28-3.01.28-4.64,0-.39.23-.8.71-1.25.98-.92,2.29-.81,3.08-.06.42.4.63.91.63,1.51,0,.69-.16,1.9-.5,3.68-.37,1.92-.68,4.42-.92,7.42-.25,3.01-.37,5.04-.37,6.02,0,.61-.28,1.2-.83,1.76-1.12,1.14-2.12,1.03-3.02.3-.47-.38-.73-.9-.73-1.51,0-.21.04-.75.36-3.14.23-1.71.35-2.9.35-3.52,0-.05,0-.09,0-.13-.45.01-1.17.06-2.16.14-1.25.11-2.09.16-2.56.16-.31,0-1.13.05-2.52.14-1.1.08-1.6.13-1.83.17-.12.4-.27,1.34-.38,3.54-.05,1.3-.23,2.41-.55,3.3-.38,1.06-.94,1.6-1.66,1.6ZM150.26,18.97c-.22,0-.43.09-.65.29-.22.2-.35.38-.37.56-.69,7.3-1.33,12.19-1.91,14.51-.24.98-.37,1.74-.37,2.28s.13.89.4,1.14c.28.26.62.39,1.05.39.34,0,.6-.59.72-.93.28-.79.45-1.8.49-3,.15-2.98.38-3.78.55-4.13l.1-.14c.16-.16.24-.24,2.49-.4,1.43-.1,2.25-.15,2.59-.15.43,0,1.26-.05,2.47-.16,1.23-.1,2.07-.15,2.5-.15.28,0,.75.15.75,1.13,0,.68-.12,1.87-.36,3.65-.29,2.14-.35,2.82-.35,3,0,.3.11.54.35.73.27.22.54.33.81.33.12,0,.4-.07.87-.55.36-.37.54-.72.54-1.06,0-1.01.13-3.07.38-6.11.25-3.04.56-5.57.94-7.53.32-1.7.48-2.87.48-3.49,0-.32-.1-.57-.33-.79-.42-.4-1.1-.51-1.7.06-.38.36-.4.52-.4.53,0,1.67-.1,3.27-.29,4.76-.26,2.04-.46,2.6-.6,2.85-.2.36-.66.72-4.04,1.01-2.26.19-4.04.29-5.28.29-.81,0-1.15-.08-1.34-.32l-.11-.14v-.18c0-.79.15-1.98.47-3.65.26-1.37.39-2.38.39-3,0-1.46-.63-1.66-1.24-1.66Z"/>
        </g>
        <g>
          <path class="cls-3" d="M176.8,33.29c-2.31,3.05-4.54,4.57-6.7,4.57-.79,0-1.47-.31-2.04-.94s-.86-1.42-.86-2.39c0-2.33,1.04-4.81,3.11-7.44,2.07-2.63,4.17-3.95,6.28-3.95,1.07,0,1.78.54,2.11,1.62,1.01,0,1.52.39,1.52,1.16,0,.37-.1,1.04-.29,2-.35,1.81-.53,3.26-.53,4.34s.08,1.92.23,2.37c.15.46.27.76.34.9s.28.29.63.45c.35.17.53.4.53.7,0,.45-.23.82-.68,1.12-.45.3-.93.45-1.42.45-1.65,0-2.39-1.66-2.23-4.97ZM176.01,25.98c-.89,0-2.04.98-3.46,2.95-1.42,1.96-2.13,3.63-2.13,5,0,.72.15,1.08.45,1.08,1.04,0,2.31-.92,3.83-2.76,1.52-1.84,2.27-3.45,2.27-4.83,0-.44-.1-.79-.3-1.05-.2-.26-.42-.39-.67-.39Z"/>
          <path class="cls-1" d="M179.03,38.76c-.69,0-1.26-.24-1.71-.7-.63-.66-.97-1.76-1.03-3.34-2.09,2.42-4.17,3.64-6.18,3.64-.93,0-1.75-.37-2.41-1.1-.66-.72-.99-1.63-.99-2.72,0-2.43,1.08-5.04,3.22-7.75,2.16-2.75,4.41-4.14,6.67-4.14,1.18,0,2.02.56,2.47,1.64,1.49.14,1.66,1.18,1.66,1.64,0,.4-.1,1.09-.3,2.1-.34,1.77-.52,3.2-.52,4.24,0,1.33.11,1.94.21,2.21.19.56.27.76.31.83h0s.09.08.39.22c.72.34.82.87.82,1.15,0,.43-.16,1.04-.9,1.54-.53.35-1.1.53-1.69.53ZM177.38,31.7l-.08,1.62c-.13,2.56.33,3.62.74,4.05.49.52,1.37.53,2.13.03.41-.27.45-.53.45-.7,0-.04,0-.13-.24-.25-.47-.21-.74-.42-.87-.68-.05-.11-.15-.32-.36-.96-.17-.51-.26-1.34-.26-2.53,0-1.11.18-2.6.54-4.43.23-1.16.28-1.68.28-1.91,0-.25,0-.66-1.02-.66h-.37l-.11-.35c-.27-.88-.77-1.27-1.63-1.27-1.94,0-3.92,1.26-5.88,3.76-1.99,2.53-3,4.93-3,7.13,0,.85.24,1.52.73,2.05.48.52,1.02.77,1.67.77,1.98,0,4.1-1.47,6.3-4.38l.98-1.29ZM170.87,35.51c-.43,0-.95-.27-.95-1.58,0-1.49.73-3.22,2.22-5.3,1.56-2.15,2.78-3.15,3.87-3.15.28,0,.69.1,1.06.58.27.35.4.8.4,1.35,0,1.51-.78,3.2-2.39,5.15-1.63,1.98-3.01,2.94-4.22,2.94ZM176.01,26.48c-.4,0-1.33.36-3.06,2.74-1.35,1.87-2.03,3.45-2.03,4.71,0,.32.03.49.06.58.62-.05,1.68-.57,3.33-2.57,1.43-1.74,2.16-3.26,2.16-4.51,0-.33-.07-.58-.19-.75-.1-.13-.19-.19-.27-.19Z"/>
        </g>
        <g>
          <path class="cls-3" d="M194.64,35.78c-.42-.79-.73-2.27-.92-4.43-.19-2.25-.62-3.38-1.29-3.38s-1.73,1.17-3.28,3.51c-1.56,2.34-2.51,4.07-2.87,5.19-.08.33-.23.61-.44.83-.22.22-.43.33-.64.33-1.34,0-2-.61-2-1.83,0-.41.13-1.35.4-2.82.34-1.9.51-4.22.51-6.96,0-.41.18-.86.54-1.33.36-.47.74-.71,1.15-.71.51,0,.9.13,1.17.38s.41.93.41,2.03c0,.83-.25,2.45-.75,4.85,1.91-4.46,4.03-6.7,6.38-6.7,2.04,0,3.23,1.6,3.59,4.81.35,3.27.76,4.9,1.21,4.9.2,0,.44-.04.7-.13.32-.11.57-.16.75-.16.42,0,.63.25.63.74,0,.45-.29.92-.87,1.43-.58.51-1.31.76-2.19.76-1.02,0-1.75-.44-2.19-1.33h.01Z"/>
          <path class="cls-1" d="M185.18,38.34c-1.61,0-2.5-.83-2.5-2.33,0-.45.13-1.4.4-2.91.34-1.86.51-4.17.51-6.87,0-.52.22-1.07.64-1.63.46-.6.98-.9,1.54-.9.64,0,1.15.17,1.51.52.39.37.57,1.11.57,2.4,0,.38-.05.89-.14,1.54,1.59-2.61,3.33-3.89,5.27-3.89,2.33,0,3.7,1.77,4.08,5.26.36,3.35.71,4.23.84,4.45.12-.01.26-.05.42-.1.37-.12.67-.18.91-.18.55,0,1.13.33,1.13,1.24,0,.6-.35,1.21-1.04,1.81-.67.58-1.52.88-2.52.88-1.2,0-2.12-.56-2.64-1.61l-.36-.72h.07c-.3-.9-.52-2.18-.67-3.89-.24-2.79-.79-2.92-.79-2.92-.07,0-.74.09-2.87,3.29-1.52,2.29-2.47,4-2.82,5.06-.09.38-.28.74-.56,1.03-.31.32-.65.48-1,.48ZM185.78,24.7c-.24,0-.49.17-.75.51-.29.38-.44.72-.44,1.02,0,2.76-.18,5.13-.52,7.05-.32,1.78-.39,2.47-.39,2.73,0,.95.44,1.33,1.5,1.33.07,0,.17-.07.28-.18.15-.15.25-.35.31-.6.39-1.21,1.35-2.95,2.94-5.35,2.19-3.29,3.1-3.74,3.7-3.74,1.29,0,1.64,2.05,1.79,3.83.19,2.08.48,3.51.87,4.24l.16.3c.35.52.86.76,1.57.76.76,0,1.37-.21,1.86-.63.46-.4.7-.76.7-1.05,0-.17-.03-.22-.04-.23,0,0,0-.01-.1-.01-.07,0-.25.02-.59.13-.31.1-.6.16-.86.16-.74,0-1.23-.85-1.71-5.35-.48-4.36-2.44-4.36-3.09-4.36-2.12,0-4.11,2.15-5.92,6.39l-.95-.3c.49-2.36.74-3.95.74-4.75,0-1.41-.24-1.66-.25-1.67-.18-.16-.46-.25-.83-.25Z"/>
        </g>
        <g>
          <path class="cls-3" d="M210.44,33.29c-2.31,3.05-4.54,4.57-6.7,4.57-.79,0-1.47-.31-2.04-.94s-.86-1.42-.86-2.39c0-2.33,1.04-4.81,3.11-7.44,2.07-2.63,4.17-3.95,6.28-3.95,1.07,0,1.78.54,2.11,1.62,1.01,0,1.52.39,1.52,1.16,0,.37-.1,1.04-.29,2-.35,1.81-.53,3.26-.53,4.34s.08,1.92.23,2.37c.15.46.27.76.34.9s.28.29.63.45c.35.17.53.4.53.7,0,.45-.23.82-.68,1.12-.45.3-.93.45-1.42.45-1.65,0-2.39-1.66-2.23-4.97ZM209.65,25.98c-.89,0-2.04.98-3.46,2.95-1.42,1.96-2.13,3.63-2.13,5,0,.72.15,1.08.45,1.08,1.04,0,2.31-.92,3.83-2.76,1.52-1.84,2.27-3.45,2.27-4.83,0-.44-.1-.79-.3-1.05-.2-.26-.42-.39-.67-.39Z"/>
          <path class="cls-1" d="M212.67,38.76c-.69,0-1.26-.24-1.71-.7-.63-.66-.97-1.76-1.03-3.34-2.09,2.42-4.17,3.64-6.18,3.64-.93,0-1.75-.37-2.41-1.1-.66-.72-.99-1.63-.99-2.72,0-2.43,1.08-5.04,3.22-7.75,2.16-2.75,4.41-4.14,6.67-4.14,1.18,0,2.02.56,2.47,1.64,1.49.14,1.66,1.18,1.66,1.64,0,.4-.1,1.09-.3,2.1-.34,1.77-.52,3.2-.52,4.24,0,1.33.11,1.94.21,2.21.19.56.27.76.31.83h0s.09.08.39.22c.72.34.82.87.82,1.15,0,.43-.16,1.04-.9,1.54-.53.35-1.1.53-1.69.53ZM211.02,31.7l-.08,1.62c-.13,2.56.33,3.62.74,4.05.5.52,1.37.53,2.13.03.41-.27.45-.53.45-.7,0-.04,0-.13-.24-.25-.47-.21-.74-.42-.87-.68-.05-.11-.15-.32-.36-.96-.17-.51-.26-1.34-.26-2.53,0-1.11.18-2.6.54-4.43.23-1.16.28-1.68.28-1.91,0-.25,0-.66-1.02-.66h-.37l-.11-.35c-.27-.88-.77-1.27-1.63-1.27-1.94,0-3.92,1.26-5.88,3.76-1.99,2.53-3,4.93-3,7.13,0,.85.24,1.52.73,2.05.48.52,1.02.77,1.67.77,1.98,0,4.1-1.47,6.3-4.38l.98-1.29ZM204.51,35.51c-.43,0-.95-.27-.95-1.58,0-1.49.73-3.22,2.22-5.3,1.56-2.15,2.78-3.15,3.87-3.15.28,0,.69.1,1.06.58.27.35.4.8.4,1.35,0,1.51-.78,3.2-2.39,5.15-1.63,1.98-3.01,2.94-4.22,2.94ZM209.65,26.48c-.4,0-1.33.36-3.06,2.74-1.35,1.87-2.03,3.45-2.03,4.71,0,.32.03.49.06.58.62-.05,1.68-.57,3.33-2.57,1.43-1.74,2.16-3.26,2.16-4.51,0-.33-.07-.58-.19-.75-.1-.13-.19-.19-.27-.19Z"/>
        </g>
        <g>
          <path class="cls-3" d="M231,33.14c.67,0,1,.33,1,.97,0,.81-.97,1.8-2.91,2.99-1.94,1.18-3.81,1.77-5.62,1.77-1.6,0-3.07-.52-4.42-1.57-1.35-1.05-2.02-2.57-2.02-4.58s.7-4.3,2.11-6.79c1.41-2.49,3.15-4.51,5.23-6.08,2.08-1.56,4.11-2.35,6.08-2.35,1.18,0,2.12.35,2.82,1.05s1.05,1.52,1.05,2.47c0,1.02-.08,1.75-.24,2.19-.16.44-.5.82-1.01,1.14-.52.32-.94.47-1.27.47s-.62-.12-.87-.36c-.25-.24-.37-.56-.37-.96,0-.28.08-.69.22-1.23.14-.54.21-.98.21-1.34,0-.61-.21-.91-.62-.91-1.27,0-2.69.68-4.26,2.03s-2.92,3.03-4.04,5.04c-1.12,2.01-1.68,3.78-1.68,5.32,0,1.02.29,1.88.88,2.58s1.45,1.05,2.58,1.05c.67,0,1.51-.18,2.53-.54,1.01-.36,1.95-.85,2.81-1.46.87-.62,1.46-.94,1.78-.94Z"/>
          <path class="cls-1" d="M223.47,39.37c-1.71,0-3.29-.56-4.72-1.67-1.47-1.14-2.21-2.81-2.21-4.97s.73-4.48,2.17-7.04c1.43-2.54,3.24-4.63,5.36-6.23,2.16-1.62,4.31-2.45,6.38-2.45,1.31,0,2.38.4,3.17,1.2s1.2,1.75,1.2,2.82-.09,1.86-.27,2.36c-.2.55-.61,1.02-1.22,1.4-1.27.77-2.09.68-2.74.05-.35-.34-.52-.78-.52-1.32,0-.33.08-.77.24-1.36.13-.48.19-.89.19-1.21s-.07-.41-.07-.41h0c-1.18,0-2.5.64-3.97,1.91-1.52,1.31-2.84,2.96-3.93,4.91-1.07,1.92-1.62,3.63-1.62,5.08,0,.91.25,1.65.77,2.26.49.59,1.21.88,2.2.88.61,0,1.4-.17,2.36-.51.97-.34,1.87-.81,2.69-1.4,1.27-.91,1.77-1.03,2.07-1.03.94,0,1.5.55,1.5,1.47,0,1.02-1,2.1-3.15,3.41-2.01,1.23-3.99,1.85-5.88,1.85ZM230.46,18.01c-1.86,0-3.8.76-5.78,2.25-2.01,1.52-3.73,3.51-5.09,5.92-1.36,2.4-2.04,4.6-2.04,6.54s.6,3.23,1.82,4.18c2.69,2.09,6.02,1.87,9.47-.24,2.41-1.47,2.67-2.28,2.67-2.56,0-.33-.07-.47-.5-.47-.03,0-.35.03-1.49.84-.9.64-1.89,1.16-2.94,1.53-1.08.38-1.96.57-2.69.57-1.28,0-2.28-.42-2.97-1.23-.66-.79-1-1.77-1-2.9,0-1.62.59-3.49,1.74-5.56,1.14-2.05,2.54-3.79,4.15-5.18,1.66-1.43,3.2-2.15,4.58-2.15.26,0,1.12.1,1.12,1.41,0,.41-.07.89-.23,1.47-.17.62-.21.94-.21,1.1,0,.35.12.51.22.6.15.15.32.21.52.21.13,0,.43-.05,1.01-.4.42-.25.69-.55.8-.88.09-.27.21-.83.21-2.03,0-.81-.3-1.5-.91-2.11s-1.42-.91-2.47-.91Z"/>
        </g>
        <g>
          <path class="cls-3" d="M239.87,33.45c-.15.37-.61,1.18-1.38,2.45-.77,1.26-1.3,1.96-1.6,2.11-.3.14-.56.22-.79.22-.32,0-.7-.17-1.14-.52-.44-.35-.67-.71-.67-1.07,0-.34,1.1-2.19,3.31-5.55,1.2-1.84,2.3-3.66,3.3-5.46,2-3.64,3.21-5.75,3.66-6.35.44-.59.9-.89,1.36-.89.75,0,1.29.19,1.62.58.17.12.25.42.25.88,0,.34-.03.62-.09.83,1.61,4.9,2.87,8.37,3.78,10.41.91,2.04,1.82,3.51,2.74,4.42.46.46.74.76.84.92.1.16.15.37.15.63,0,.48-.18.89-.53,1.22-.35.33-.77.5-1.25.5-.67,0-1.35-.39-2.04-1.16-.69-.77-1.34-1.84-1.95-3.19-.61-1.35-.92-2.11-.92-2.28,0-.04-.02-.05-.07-.05-.47,0-1.53.17-3.17.5-1.64.33-2.96.66-3.95.98-.25.08-.48.12-.67.12-.34,0-.61-.08-.79-.24ZM247.46,29.42c-.21-.52-.83-2.36-1.87-5.54-.1-.29-.16-.47-.2-.55l-3.74,7.12c.55-.1,1.12-.19,1.7-.26.39-.04,1.37-.23,2.95-.55.39-.08.77-.15,1.16-.21Z"/>
          <path class="cls-1" d="M253.42,39.28c-.81,0-1.62-.45-2.41-1.33-.72-.81-1.4-1.92-2.03-3.32-.5-1.1-.74-1.69-.85-2.02-.44.04-1.25.17-2.74.47-1.61.33-2.93.65-3.9.96-.56.17-1.01.17-1.38.07-.24.46-.63,1.13-1.18,2.04-1.08,1.78-1.52,2.16-1.81,2.3-.9.43-1.54.36-2.46-.36-.57-.44-.86-.94-.86-1.47,0-.26,0-.66,3.39-5.82,1.19-1.82,2.29-3.64,3.28-5.43,2.02-3.69,3.23-5.79,3.7-6.41.54-.72,1.14-1.09,1.76-1.09.87,0,1.54.24,1.97.72.36.31.4.86.4,1.25,0,.32-.02.58-.07.81,1.58,4.8,2.83,8.24,3.71,10.22.88,1.97,1.77,3.41,2.63,4.27.64.64.82.88.91,1.01.15.24.23.54.23.9,0,.63-.23,1.16-.69,1.58-.45.42-.98.63-1.59.63ZM248.45,31.59h.5l.07.55s.11.38.87,2.07c.59,1.3,1.22,2.33,1.87,3.06.99,1.11,1.94,1.23,2.57.63.25-.24.37-.51.37-.85,0-.16-.03-.29-.07-.36-.04-.06-.18-.25-.77-.84-.95-.95-1.91-2.49-2.84-4.57-.91-2.04-2.19-5.55-3.8-10.46l-.05-.15.04-.15c.03-.11.07-.33.07-.69,0-.4-.07-.5-.07-.5-.29-.32-.71-.46-1.3-.46-.3,0-.62.23-.96.69-.43.57-1.65,2.69-3.62,6.29-.99,1.8-2.11,3.65-3.32,5.49-2.79,4.25-3.19,5.14-3.23,5.32,0,.21.26.47.48.63.46.36.72.41.83.41.15,0,.35-.06.57-.17.05-.03.39-.27,1.39-1.92.94-1.54,1.25-2.14,1.34-2.37l.26-.64.53.45c.11.1.32.12.47.12.14,0,.32-.03.52-.1,1-.32,2.35-.65,4-.99,1.69-.34,2.76-.51,3.27-.51ZM240.73,31.11l4.7-8.93.42.94c.04.09.11.28.22.6,1.03,3.15,1.66,5,1.86,5.51l.24.58-.62.1c-.38.06-.76.13-1.14.21-1.61.33-2.59.51-3,.56-.56.08-1.12.16-1.67.26l-1,.17ZM245.3,24.59l-2.74,5.21c.24-.04.48-.07.73-.1.27-.03.98-.15,2.92-.55.19-.04.39-.08.58-.11-.29-.81-.78-2.27-1.49-4.44Z"/>
        </g>
        <g>
          <path class="cls-3" d="M271.68,21.26c-.21.14-.47.21-.77.21-.18,0-.33-.02-.46-.05-.23-.04-.61-.07-1.13-.07-1.09,0-2.34.08-3.74.24-1.4.16-2.36.34-2.88.55-.55,1.67-.9,3.66-1.03,5.97.36-.05.73-.1,1.09-.14,1.36-.14,2.63-.32,3.81-.54.98-.18,1.78-.26,2.37-.26,1.34,0,2,.47,2,1.4,0,.17-.13.39-.39.68-.26.29-.54.49-.84.61-.3.12-.85.24-1.66.36l-3.53.44c-1.35.17-2.36.33-3.01.5-.1.04-.17.12-.22.24-.05.12-.11.65-.18,1.59-.08.95-.11,1.82-.11,2.62l.05,1.67c0,1.04-.48,1.56-1.45,1.56-.49,0-.96-.18-1.4-.54-.44-.36-.67-.85-.67-1.46,0-1.14.13-2.78.39-4.92.02-.1.47-3.34,1.37-9.74,0-.3-.04-.55-.13-.76-.13-.38-.2-.68-.2-.91,0-.32.19-.65.56-1,.37-.35.72-.52,1.03-.52.21,0,.43.03.66.08.32.07.66.11,1.01.11s1.75-.14,4.22-.42c1.61-.18,2.81-.26,3.6-.26.83,0,1.48.13,1.95.39.46.26.69.49.69.71,0,.74-.34,1.31-1.03,1.7h0Z"/>
          <path class="cls-1" d="M259.62,39.33c-.61,0-1.19-.22-1.72-.65-.56-.46-.85-1.08-.85-1.85,0-1.16.13-2.84.4-4.98.02-.13.27-1.91,1.37-9.75,0-.16-.04-.35-.1-.5-.16-.46-.24-.81-.24-1.1,0-.46.24-.92.72-1.36.72-.68,1.4-.73,2.15-.56.28.06.59.09.9.09.22,0,1.12-.07,4.16-.42,1.62-.18,2.85-.27,3.66-.27.93,0,1.65.15,2.19.45.41.23.95.6.95,1.14,0,.91-.44,1.65-1.28,2.13l-.75.43v-.18c-.29.04-.61.01-.86-.05-.1-.02-.39-.05-1-.05-1.07,0-2.3.08-3.68.23-1.17.13-2.02.28-2.54.44-.45,1.42-.75,3.1-.89,5.01.17-.02.33-.04.5-.06,1.35-.14,2.62-.32,3.78-.54,1.01-.18,1.84-.27,2.46-.27,2.18,0,2.5,1.19,2.5,1.9,0,.3-.17.62-.52,1.01-.31.34-.65.59-1.02.74-.34.14-.93.27-1.78.39l-3.54.44c-1.25.15-2.19.31-2.82.46-.02.1-.07.43-.15,1.42-.07.92-.11,1.79-.11,2.58l.05,1.66c0,1.32-.71,2.07-1.95,2.07ZM260.58,19.48c-.18,0-.43.14-.69.39-.26.24-.4.46-.4.63,0,.12.03.34.17.74.1.25.16.57.16.93-1.35,9.67-1.37,9.79-1.38,9.83-.25,2.07-.39,3.71-.39,4.83,0,.47.15.81.48,1.07.36.29.71.43,1.09.43.57,0,.95-.18.95-1.06l-.05-1.66c0-.83.04-1.72.11-2.67.12-1.5.18-1.65.22-1.75.12-.3.32-.44.47-.51.76-.2,1.76-.37,3.15-.54l3.53-.44c.94-.13,1.35-.25,1.53-.32.23-.09.45-.26.66-.49.23-.26.26-.36.26-.37,0-.27,0-.87-1.51-.87-.57,0-1.33.09-2.29.26-1.18.22-2.48.41-3.85.55-.36.04-.72.09-1.07.14l-.61.09.04-.61c.13-2.34.49-4.4,1.05-6.1l.07-.22.21-.09c.57-.23,1.55-.42,3.01-.59,1.41-.16,2.69-.24,3.79-.24.56,0,.97.02,1.23.07.31.08.64.06.85-.08l.36-.24c.3-.27.45-.6.45-1.02-.01.04-.11-.1-.44-.28-.38-.22-.96-.33-1.7-.33s-1.96.09-3.54.26c-3.34.38-4.04.42-4.27.42-.39,0-.76-.04-1.12-.12-.2-.05-.38-.07-.55-.07Z"/>
        </g>
        <g>
          <path class="cls-3" d="M288.29,21.36l-4.06.21c-1.42.08-2.63.2-3.65.38-1.02.17-1.57.3-1.65.4-.08.09-.14.36-.18.81-.04.44-.2,1.21-.47,2.32-.22.84-.35,1.53-.39,2.07.56,0,1.37-.06,2.43-.17s1.8-.22,2.24-.33c1.27-.31,2.25-.46,2.94-.46,1.39,0,2.08.41,2.08,1.24,0,.61-.19,1.03-.58,1.26-.39.23-.99.39-1.82.48-.51.05-1.08.13-1.71.24-.33.05-.75.11-1.25.16-2.44.28-3.87.5-4.31.66h-.01c-.15.04-.26.15-.34.3-.07.16-.21.81-.4,1.96-.19,1.15-.29,1.95-.29,2.41.04.33.25.49.61.49.42,0,1.53-.12,3.33-.35,1.8-.23,2.91-.39,3.34-.48,1.2-.25,1.99-.38,2.36-.38,1.12.16,1.67.68,1.67,1.55,0,.41-.13.71-.4.92-.88.39-2.1.64-3.65.74-1.2.07-2.66.22-4.38.45-1.53.33-2.97.49-4.32.49-.71,0-1.23-.15-1.54-.46-.32-.3-.51-.78-.57-1.42l-.04-.43c0-.07.07-.34.22-.8.35-1.08.78-3.48,1.29-7.21s.76-5.8.76-6.22c0,0-.03-.04-.08-.11-.06-.05-.17-.22-.31-.51-.15-.29-.22-.58-.22-.88,0-.16.02-.29.05-.38.04-.18.22-.37.57-.55.34-.18.66-.28.96-.28.41,0,.83.03,1.25.08.73,0,3.1-.26,7.12-.79,1.33-.18,2.03-.26,2.1-.26h.18c1.58-.13,2.37.38,2.37,1.52,0,.21-.14.47-.43.78-.29.31-.56.5-.82.57Z"/>
          <path class="cls-1" d="M275.41,39.21c-.85,0-1.47-.19-1.89-.59-.4-.39-.65-.97-.72-1.73l-.04-.44c-.01-.12,0-.26.25-1.01.34-1.04.77-3.44,1.27-7.12.54-3.98.72-5.48.75-5.99-.08-.1-.18-.26-.33-.56-.18-.35-.27-.72-.27-1.1,0-.22.03-.4.08-.55.04-.27.31-.56.8-.82.88-.48,1.68-.36,2.51-.25.64,0,3.01-.27,6.99-.79,2.04-.27,2.11-.27,2.16-.27h.15c1.07-.09,1.84.1,2.34.56.38.35.57.84.57,1.46,0,.34-.18.71-.56,1.12-.35.39-.7.62-1.06.72l-.1.02-4.06.21c-1.39.08-2.6.2-3.59.37-.85.14-1.21.23-1.36.28-.01.07-.04.22-.06.48-.05.48-.21,1.26-.49,2.4-.14.55-.25,1.03-.31,1.43.48-.02,1.09-.08,1.8-.15,1.02-.11,1.76-.22,2.18-.32,1.32-.32,2.32-.47,3.06-.47,2.13,0,2.58.95,2.58,1.74,0,.99-.45,1.46-.82,1.69-.45.27-1.12.45-2.02.55-.5.05-1.06.13-1.68.23-.34.05-.77.11-1.28.16-2.97.34-3.92.53-4.2.63l-.04.02c-.04.08-.13.38-.38,1.86-.19,1.1-.28,1.88-.28,2.31,0-.01.04,0,.11,0,.39,0,1.49-.12,3.26-.35,1.78-.23,2.89-.39,3.31-.48,1.24-.26,2.05-.39,2.46-.39,1.9.26,2.17,1.4,2.17,2.05,0,.7-.32,1.1-.58,1.31l-.11.07c-.93.42-2.22.68-3.83.78-1.18.07-2.64.22-4.34.44-1.52.32-3.01.49-4.39.49ZM276.52,19.96c-.21,0-.46.07-.72.22-.27.15-.32.23-.32.23-.02.06-.04.12-.04.26,0,.22.05.43.16.65.15.3.21.37.22.38.12.14.23.26.23.46,0,.29-.08,1.25-.77,6.29-.52,3.79-.95,6.18-1.31,7.3-.18.52-.2.65-.2.67l.04.37c.05.51.19.89.42,1.1.22.21.63.32,1.2.32,1.31,0,2.73-.16,4.22-.48,1.76-.24,3.25-.39,4.45-.46,1.44-.09,2.59-.31,3.41-.67.08-.08.17-.22.17-.5,0-.44-.15-.9-1.25-1.06-.16,0-.74.07-2.19.38-.45.09-1.55.25-3.38.49-1.84.24-2.95.35-3.39.35-.61,0-1.03-.34-1.1-.92,0-.56.09-1.37.29-2.56.3-1.78.4-1.99.44-2.09.14-.29.36-.49.65-.57l.07-.02c.37-.11,1.29-.3,4.33-.66.5-.05.9-.1,1.23-.16.64-.11,1.22-.19,1.74-.24.93-.1,1.39-.28,1.61-.41.15-.09.34-.27.34-.83,0-.2,0-.74-1.58-.74-.65,0-1.6.15-2.82.45-.47.11-1.22.22-2.3.34-1.09.12-1.9.17-2.48.17h-.54l.04-.54c.04-.57.18-1.27.41-2.16.26-1.07.42-1.83.46-2.24.05-.6.13-.91.31-1.1.15-.16.35-.29,1.94-.55,1.03-.17,2.28-.3,3.71-.38l4-.21c.12-.04.3-.15.54-.41.29-.31.3-.45.3-.45,0-.33-.08-.57-.25-.73-.27-.25-.82-.36-1.58-.3h-.19c-.13.02-.81.11-2.07.27-4.08.54-6.43.8-7.18.8-.46-.05-.86-.08-1.25-.08Z"/>
        </g>
      </g>
      <g>
        <path class="cls-1" d="M315.53,79.13c-7.24,0-12.97-2.17-17.04-6.45-4.06-4.27-6.12-8.2-6.12-11.67,0-4.59.62-8.78,1.86-12.44,1.23-3.66,3.3-7.6,6.17-11.72,2.85-4.1,6.77-8.62,11.66-13.43,4.97-4.89,8.53-7.81,10.87-8.96,2.34-1.13,4.58-1.71,6.66-1.71,1.81,0,3.4.58,4.74,1.73,1.36,1.17,2.05,2.53,2.05,4.04,0,3.16-1.68,5.05-5.01,5.62-2.2.35-4.5,1.31-6.84,2.85-2.36,1.56-4.55,3.48-6.52,5.7-1.99,2.25-4.14,4.85-6.4,7.72-2.23,2.84-3.95,5.98-5.1,9.33s-1.73,6.43-1.73,9.16.79,4.4,2.41,5.49c.2-3.8.89-6.91,2.04-9.25,1.24-2.52,2.96-4.98,5.11-7.3,2.18-2.34,4.99-4.14,8.38-5.35,3.36-1.2,8.31-1.81,14.72-1.81,4.17,0,7.99,1.44,11.33,4.29,3.37,2.87,5.08,6.32,5.08,10.27,0,2.47-1,5.12-2.97,7.88-1.95,2.73-5.31,5.63-9.98,8.63-4.65,2.99-8.48,4.98-11.37,5.94-2.9.96-7.62,1.44-14.02,1.44ZM329.6,13.75c-1.93,0-4.03.54-6.23,1.61-2.22,1.08-5.79,4.03-10.61,8.77-4.84,4.76-8.72,9.23-11.54,13.28-2.81,4.04-4.84,7.9-6.04,11.47-1.2,3.56-1.8,7.64-1.8,12.12,0,3.21,1.97,6.9,5.84,10.98,3.87,4.08,9.36,6.14,16.31,6.14,6.3,0,10.91-.47,13.71-1.39,2.81-.93,6.56-2.89,11.14-5.83,4.56-2.93,7.83-5.74,9.7-8.37,1.85-2.59,2.79-5.04,2.79-7.3,0-3.64-1.59-6.84-4.73-9.51-3.16-2.69-6.76-4.06-10.69-4.06-6.29,0-11.13.59-14.38,1.75-3.23,1.16-5.91,2.87-7.98,5.09-2.09,2.25-3.75,4.62-4.95,7.06-1.18,2.42-1.85,5.72-1.98,9.83l-.04,1.15-.82-.81c-.15-.15-.32-.29-.52-.44-1.98-1.25-2.99-3.41-2.99-6.41,0-2.84.6-6.03,1.79-9.49,1.18-3.46,2.95-6.69,5.26-9.62,2.27-2.89,4.44-5.5,6.44-7.76,2.02-2.28,4.28-4.26,6.71-5.87,2.46-1.63,4.89-2.64,7.23-3.01,2.8-.48,4.17-1.99,4.17-4.63,0-1.23-.56-2.3-1.71-3.28-1.17-1-2.51-1.49-4.09-1.49ZM321.64,69.17c-.92,0-2.53-.08-4.77-.25l-.5-.04.04-.5c.93-11.94,6.44-17.99,16.37-17.99,5.35,0,8.98,1.2,10.8,3.56l.13.17-.03.21c-.38,2.71-3.06,5.8-8.19,9.44-5.03,3.58-9.68,5.39-13.84,5.39ZM317.44,67.96c1.96.14,3.37.21,4.2.21,3.94,0,8.41-1.75,13.26-5.21,4.69-3.33,7.29-6.21,7.74-8.56-1.67-2-4.98-3.01-9.87-3.01-9.31,0-14.33,5.42-15.33,16.57Z"/>
        <path class="cls-1" d="M381.12,79.38c-3.05,0-5.08-1.32-6.04-3.92-.69-1.89.88-3.94,2.03-5.43.47-.61.91-1.18,1.01-1.51.14-.43.49-1.06,1.02-2.02,1.06-1.93,2.67-4.83,3.89-8.57l3.33-10.59c-3.82,2.14-7.18,3.64-10.01,4.47-3.11.9-6.64,1.36-10.52,1.36-3.28,0-6.29-1.35-8.95-4-2.66-2.66-4-5.8-4-9.34,0-3.1.78-6.15,2.33-9.07,1.54-2.91,4.15-5.9,7.77-8.89,3.57-2.96,6.18-4.99,7.76-6.04s4.55-2.18,8.96-3.36c4.4-1.18,7.47-1.75,9.38-1.75,2.28,0,4.21.36,5.75,1.07,1.52.7,3.14,1.81,4.83,3.3l3.95,3.47c1.08.9,1.87,2.34,2.35,4.26l.06.41c0,.22.06.58.12,1,.22,1.37.58,3.67-.3,5.85-2.9,7.2-5.21,14.26-7.5,22.89-1.38,5.22-3.19,9.39-4.51,12.43-1,2.29-1.78,4.1-1.78,5.04,0,5.87-7.12,8.95-10.94,8.95ZM388.08,45.18l-4.1,13.04c-1.25,3.83-2.89,6.79-3.97,8.75-.47.84-.83,1.51-.94,1.84-.16.5-.6,1.08-1.17,1.82-1.06,1.38-2.39,3.1-1.88,4.48.81,2.19,2.47,3.26,5.1,3.26,3.37,0,9.94-2.81,9.94-7.95,0-1.15.74-2.86,1.86-5.44,1.31-3.01,3.1-7.14,4.46-12.29,2.3-8.67,4.62-15.77,7.54-23.01.78-1.93.46-3.97.24-5.32-.07-.46-.13-.82-.14-1.11l-.04-.25c-.42-1.67-1.1-2.93-2.03-3.7l-3.96-3.47c-1.62-1.43-3.16-2.48-4.59-3.14-1.41-.65-3.2-.98-5.33-.98-1.8,0-4.87.58-9.12,1.72-4.24,1.14-7.16,2.22-8.67,3.23-1.54,1.03-4.13,3.04-7.67,5.98-3.51,2.91-6.04,5.8-7.52,8.59-1.47,2.78-2.21,5.67-2.21,8.6,0,3.27,1.25,6.17,3.71,8.63,2.46,2.46,5.23,3.71,8.24,3.71,3.78,0,7.22-.45,10.24-1.32,3.02-.88,6.69-2.56,10.9-5.01l1.11-.65ZM370.27,44.42c-1.7,0-3.1-.58-4.17-1.72-1.06-1.13-1.6-2.59-1.6-4.35,0-2.1,1.41-4.71,4.3-8,2.81-3.19,5.69-5.55,8.54-7.02,2.87-1.48,6.26-2.23,10.07-2.23,3.31,0,5.5.98,6.5,2.91l.06.11v.12c0,.25-.02,6.27-2.14,8.84-1.82,2.21-4.27,4.64-9.78,7.4-5.28,2.65-9.13,3.94-11.77,3.94ZM387.41,22.11c-3.65,0-6.88.71-9.61,2.12-2.75,1.41-5.52,3.7-8.25,6.79-2.69,3.05-4.05,5.52-4.05,7.34,0,1.51.43,2.71,1.33,3.66.89.94,2.01,1.4,3.44,1.4,2.45,0,6.26-1.29,11.32-3.83,5.34-2.68,7.7-5.02,9.46-7.15,1.74-2.11,1.9-7.22,1.91-8.08-.84-1.5-2.71-2.26-5.55-2.26Z"/>
      </g>
      <g>
        <path class="cls-2" d="M1.14,42.99c-.17-.02-.35-.04-.52-.06.33.31.68.6,1.04.88.01.22.15.42.29.59,1,1.25,2.2,2.3,3.53,3.17,2.67,2.9,8.44,3.89,11.87,4.26,6.19.68,12.4.02,18.52-.96,6.22-1,12.81-1.87,18.51-4.69,12.07-5.99,15.41-19.21,17.49-31.45.22-1.28-.12-2.33-.75-3.1-.75-.67-2.15-1.45-3.16-1.5-.07-.14-.14-.29-.22-.43C62.45.57,49.81-1.39,40.68,2.56c-11.63,5.04-17.77,16.37-24.87,26.14-1,1.37-2.04,2.73-3.12,4.03-1.53,1.19-3.01,2.53-3.97,4.17-1.13.97-2.35,1.93-3.25,3.08l-1.9,1.59-2.43,1.43c.67-.32,1.57-.94,2.24-1.27l-.15.12c.17-.1.34-.2.51-.3M41.41,41.75c1.4-.26,2.81-.53,4.21-.79.05.21.12.4.2.59-2.77.8-5.65,1.37-8.55,1.83,1.39-.51,2.77-1.05,4.14-1.63Z"/>
        <g>
          <path class="cls-4" d="M1.14,42.37c-.17-.02-.35-.04-.52-.06-.54-.06-.82.72-.44,1.07,1.3,1.17,2.24,2.64,3.63,3.75,1.21.97,2.39,2.05,3.77,2.78,2.63,1.4,5.63,2.01,8.56,2.4,8.24,1.1,16.48-.23,24.61-1.6,7.18-1.21,14.44-3.05,19.93-8.11,4.52-4.16,7.28-9.82,9.07-15.61,1.05-3.4,1.8-6.89,2.43-10.39.29-1.59.7-3.23-.14-4.73-.77-1.37-2.58-2.19-4.08-2.36l.54.31c-2.39-4.92-7.65-8.09-12.83-9.24-5.42-1.2-11.16-.53-16.17,1.84-12.32,5.81-18.27,18.64-26.36,28.79-1.26,1.58-2.98,2.68-4.21,4.3-1.12,1.46-2.58,2.76-3.91,4.05s-2.51,1.91-4.18,2.9c-.7.41-.08,1.45.63,1.08.77-.39,1.48-.87,2.24-1.27l-.76-.98-.15.12c-.55.46.16,1.33.76.98l.51-.3c.69-.41.06-1.49-.63-1.08l-.51.3.76.98.15-.12c.57-.47-.16-1.29-.76-.98-.76.4-1.48.88-2.24,1.27l.63,1.08c1.2-.7,2.35-1.35,3.41-2.24.78-.65,1.41-1.36,2.13-2.06.59-.57,1.24-1.07,1.85-1.63.7-.64,1.14-1.52,1.8-2.22.57-.61,1.19-1.16,1.83-1.69.71-.59,1.25-1.24,1.82-1.96,1.08-1.38,2.12-2.79,3.13-4.22,1.8-2.55,3.54-5.14,5.35-7.68C29.68,10.16,38.9.51,51.78,1.29c5.56.34,11.18,2.72,14.51,7.33.52.72.86,1.8,1.67,2.14s1.6.44,2.33,1c1.02.78,1.12,1.95.93,3.14-.46,2.87-1.05,5.74-1.77,8.56-1.44,5.63-3.55,11.28-7.31,15.79-4.27,5.13-10.16,7.8-16.56,9.26-4.05.93-8.19,1.54-12.3,2.13-4.62.66-9.31,1.05-13.98.74-3.31-.22-6.75-.7-9.84-1.97-1.58-.65-2.68-1.66-4.03-2.62-1.74-1.25-2.82-2.91-4.37-4.3l-.44,1.07c.17.02.35.04.52.06.8.09.79-1.17,0-1.25h0Z"/>
          <path class="cls-4" d="M41.58,42.35c1.4-.26,2.81-.53,4.21-.79l-.77-.44c.06.2.12.39.2.59l.44-.77c-2.81.8-5.67,1.37-8.55,1.83l.33,1.21c1.39-.51,2.77-1.05,4.14-1.63.31-.13.53-.41.44-.77-.08-.29-.46-.57-.77-.44-1.37.58-2.75,1.12-4.14,1.63-.76.28-.46,1.33.33,1.21,2.88-.46,5.75-1.03,8.55-1.83.29-.08.57-.45.44-.77-.08-.19-.15-.39-.2-.59-.09-.35-.44-.5-.77-.44-1.4.26-2.81.53-4.21.79-.79.15-.46,1.35.33,1.21Z"/>
        </g>
      </g>
      <g>
        <g>
          <path class="cls-5" d="M400.43,18.13c-.6-1.16-1.94-1.74-4-1.74-2.48,0-4.64.48-6.51,1.44-1.86.96-3.71,2.48-5.55,4.57-1.84,2.09-2.6,3.85-3.16,5.02-1.03,2.17-1.72,3.71-1.07,4.4.65.69,3.45-.25,4.96-.67,1.62-.45,4.22-.86,7.64-2.57,3.41-1.71,5.06-3.23,6.36-4.81s1.34-5.63,1.34-5.63Z"/>
          <path class="cls-1" d="M381,32.38c-.49,0-.87-.1-1.1-.35-.78-.83-.13-2.35,1.02-4.77l.13-.27c.54-1.14,1.35-2.86,3.08-4.83,1.86-2.11,3.76-3.67,5.65-4.64,1.9-.98,4.14-1.47,6.66-1.47,2.19,0,3.64.65,4.3,1.92l.04.07v.08c0,.17-.02,4.14-1.42,5.84-1.2,1.46-2.82,3.07-6.46,4.9-2.75,1.38-4.97,1.92-6.59,2.31-.41.1-.78.19-1.11.28l-.6.17c-1.45.42-2.7.75-3.59.75ZM396.43,16.71c-2.41,0-4.55.47-6.35,1.4-1.82.93-3.65,2.45-5.46,4.49-1.67,1.9-2.43,3.5-2.98,4.67l-.13.27c-.81,1.71-1.65,3.47-1.13,4.03.43.46,2.86-.25,4.02-.59l.61-.17c.34-.09.71-.18,1.13-.29,1.59-.39,3.77-.91,6.45-2.26,3.53-1.77,5.09-3.32,6.25-4.73,1.15-1.39,1.26-4.77,1.26-5.34-.56-.99-1.79-1.49-3.67-1.49Z"/>
        </g>
        <g>
          <path class="cls-5" d="M367.02,13.34c.12,2.04.56,4.24,2.32,7.63,1.75,3.39,3.63,5.25,4.67,6.56.97,1.23,2.69,3.63,3.62,3.45.93-.18,1.28-1.83,1.72-4.19.24-1.27.66-3.15.39-5.92-.26-2.77-.86-5.09-1.81-6.96-.94-1.87-2.42-3.53-4.42-4.99-1.67-1.21-3.09-1.53-4.26-.94,0,0-2.35,3.24-2.23,5.35Z"/>
          <path class="cls-1" d="M377.53,31.33c-.91,0-2.03-1.35-3.39-3.1l-.38-.49c-.21-.27-.46-.56-.73-.88-1.08-1.27-2.56-3.01-3.97-5.74-1.87-3.62-2.24-5.87-2.35-7.76h0c-.13-2.2,2.19-5.43,2.29-5.56l.05-.07.07-.04c1.29-.64,2.84-.32,4.61.97,2.04,1.48,3.56,3.2,4.52,5.1.96,1.9,1.58,4.28,1.84,7.08.25,2.61-.11,4.48-.34,5.72l-.06.29c-.49,2.63-.87,4.24-1.98,4.45-.05.01-.11.02-.17.02ZM367.35,13.32c.11,1.82.46,3.99,2.28,7.5,1.38,2.66,2.83,4.37,3.89,5.62.28.33.53.62.74.89l.39.5c.74.96,2.26,2.96,2.91,2.84.75-.14,1.11-2.07,1.46-3.92l.06-.3c.24-1.27.57-3.01.33-5.53-.26-2.72-.85-5.02-1.77-6.84-.91-1.81-2.37-3.45-4.32-4.87-1.52-1.1-2.81-1.42-3.85-.95-.33.47-2.23,3.26-2.12,5.07h0Z"/>
        </g>
        <g>
          <path class="cls-5" d="M356.43,37.31c1.98.51,4.21.78,7.97.15,3.77-.62,6.11-1.83,7.69-2.41,1.47-.55,4.29-1.44,4.4-2.37.12-.94-1.34-1.78-3.45-2.93-1.13-.62-2.79-1.6-5.51-2.2-2.72-.61-5.11-.75-7.18-.43-2.07.32-4.1,1.21-6.11,2.66-1.67,1.21-2.41,2.47-2.21,3.76,0,0,2.35,3.24,4.4,3.77Z"/>
          <path class="cls-1" d="M360.42,38.15c-1.71,0-2.97-.24-4.07-.53h0c-2.13-.55-4.48-3.76-4.58-3.9l-.05-.06v-.08c-.23-1.42.56-2.79,2.33-4.08,2.04-1.48,4.14-2.39,6.25-2.72,2.1-.32,4.56-.18,7.3.44,2.56.57,4.23,1.49,5.33,2.09l.26.14c2.35,1.28,3.76,2.13,3.62,3.26-.12.95-1.82,1.63-4.03,2.43l-.58.21c-.32.12-.67.26-1.06.42-1.54.64-3.66,1.5-6.69,2-1.59.26-2.91.37-4.03.37ZM356.51,36.98c1.76.46,3.94.79,7.84.15,2.96-.49,5.03-1.34,6.54-1.96.4-.16.76-.31,1.08-.43l.59-.21c1.14-.41,3.52-1.27,3.6-1.89.1-.76-1.62-1.69-3.28-2.6l-.26-.14c-1.13-.62-2.69-1.47-5.16-2.03-2.66-.6-5.04-.74-7.06-.43-2.01.31-4.01,1.19-5.96,2.6-1.52,1.1-2.22,2.24-2.09,3.37.34.45,2.41,3.12,4.16,3.58h0Z"/>
        </g>
        <g>
          <path class="cls-5" d="M375.94,54.79c1.1-1.72,2.04-3.76,2.61-7.53.57-3.77.15-6.38.08-8.06-.07-1.56-.04-4.52-.9-4.92-.85-.4-2.11.73-3.85,2.38-.94.89-2.38,2.16-3.8,4.56-1.42,2.4-2.29,4.63-2.63,6.69-.34,2.07-.12,4.28.64,6.63.64,1.97,1.6,3.05,2.9,3.27,0,0,3.81-1.24,4.94-3.02Z"/>
          <path class="cls-1" d="M371.02,58.15h-.08c-1.42-.25-2.48-1.42-3.15-3.51-.78-2.39-1-4.68-.66-6.79.34-2.1,1.24-4.39,2.67-6.81,1.34-2.26,2.72-3.56,3.64-4.42l.22-.2c1.94-1.84,3.19-2.92,4.22-2.44.87.41.99,2.23,1.07,4.58l.02.62c.01.34.04.72.07,1.14.13,1.66.3,3.94-.16,6.98-.61,4.03-1.64,6.06-2.66,7.66-1.18,1.86-4.96,3.1-5.12,3.15l-.08.03ZM377.36,34.53c-.75,0-2.02,1.2-3.25,2.37l-.22.21c-.94.89-2.23,2.1-3.52,4.28-1.39,2.35-2.26,4.56-2.59,6.58-.32,2-.11,4.18.63,6.48.58,1.79,1.44,2.81,2.56,3.03.54-.19,3.72-1.33,4.69-2.85h0c.98-1.54,1.97-3.5,2.56-7.41.45-2.96.28-5.2.15-6.83-.03-.43-.06-.82-.08-1.16l-.02-.63c-.04-1.21-.12-3.74-.69-4-.07-.03-.15-.05-.24-.05Z"/>
        </g>
        <g>
          <path class="cls-5" d="M398.6,41.63c-1.3-1.58-2.95-3.1-6.36-4.81-3.41-1.71-6.02-2.12-7.64-2.57-1.51-.42-4.31-1.36-4.96-.67-.65.69.04,2.23,1.07,4.4.56,1.17,1.32,2.93,3.16,5.02,1.84,2.09,3.69,3.61,5.55,4.57,1.86.96,4.03,1.44,6.51,1.44,2.07,0,3.4-.58,4-1.74,0,0,0-4.01-1.34-5.63Z"/>
          <path class="cls-1" d="M395.94,49.34c-2.52,0-4.76-.5-6.66-1.47-1.89-.97-3.79-2.53-5.65-4.64-1.74-1.97-2.55-3.69-3.08-4.83l-.13-.27c-1.15-2.41-1.79-3.94-1.01-4.77.65-.7,2.43-.25,4.69.4l.6.17c.33.09.7.18,1.1.28,1.62.39,3.84.93,6.59,2.31,3.64,1.83,5.26,3.43,6.46,4.9,1.4,1.7,1.42,5.68,1.42,5.84v.08l-.04.07c-.66,1.28-2.11,1.92-4.3,1.92ZM380.47,33.67c-.27,0-.48.04-.58.15-.52.56.32,2.32,1.13,4.03l.13.27c.55,1.17,1.31,2.77,2.98,4.67,1.8,2.05,3.64,3.56,5.46,4.49,1.81.93,3.94,1.4,6.35,1.4,1.88,0,3.11-.5,3.67-1.49,0-.57-.12-3.95-1.26-5.34h0c-1.16-1.41-2.72-2.95-6.25-4.73-2.68-1.34-4.86-1.87-6.45-2.26-.42-.1-.79-.19-1.13-.29l-.61-.17c-.9-.26-2.53-.74-3.44-.74Z"/>
        </g>
        <circle class="cls-1" cx="378.19" cy="32.6" r="1.15"/>
      </g>
      <path class="cls-1" d="M213.96,110.24c-56.83,0-135.46-28.22-136.25-28.5l.34-.94c.79.29,79.26,28.44,135.91,28.44.44,0,.87,0,1.31,0,56.73-.44,153.67-41.58,154.64-42l.39.92c-.97.42-98.09,41.63-155.02,42.08-.43,0-.88,0-1.31,0Z"/>
    </g>
  </g>
</svg>